<?xml version="1.0" encoding="utf-8"?>
<!-- Generator: Adobe Illustrator 25.0.1, SVG Export Plug-In . SVG Version: 6.00 Build 0)  -->
<svg version="1.1" id="레이어_1" xmlns="http://www.w3.org/2000/svg" xmlns:xlink="http://www.w3.org/1999/xlink" x="0px"
	 y="0px" viewBox="0 0 1366 768" style="enable-background:new 0 0 1366 768;" xml:space="preserve">
<style type="text/css">
	.st0{fill:#7FAAFF;}
	.st1{fill:#4A68FF;}
	.st2{font-family:'S-CoreDream-7ExtraBold';}
	.st3{font-size:15px;}
	.st4{fill:none;stroke:#4A68FF;stroke-width:2;stroke-miterlimit:10;}
	.st5{fill:#FFFFFF;}
	.st6{fill:#0A33FF;}
</style>
<g>
	<path class="st0" d="M514.54,168c-10.22,0-18.54-8.32-18.54-18.54v-28.92c0-10.22,8.32-18.54,18.54-18.54h97.92
		c10.22,0,18.54,8.32,18.54,18.54v28.92c0,10.22-8.32,18.54-18.54,18.54H514.54z"/>
	<g>
		<path class="st1" d="M612.46,103c9.67,0,17.54,7.87,17.54,17.54v28.92c0,9.67-7.87,17.54-17.54,17.54h-97.92
			c-9.67,0-17.54-7.87-17.54-17.54v-28.92c0-9.67,7.87-17.54,17.54-17.54H612.46 M612.46,101h-97.92
			c-10.79,0-19.54,8.75-19.54,19.54v28.92c0,10.79,8.75,19.54,19.54,19.54h97.92c10.79,0,19.54-8.75,19.54-19.54v-28.92
			C632,109.75,623.25,101,612.46,101L612.46,101z"/>
	</g>
</g>
<g>
	<path class="st0" d="M514.54,273c-10.22,0-18.54-8.32-18.54-18.54v-28.92c0-10.22,8.32-18.54,18.54-18.54h97.92
		c10.22,0,18.54,8.32,18.54,18.54v28.92c0,10.22-8.32,18.54-18.54,18.54H514.54z"/>
	<path class="st1" d="M612.46,208c9.67,0,17.54,7.87,17.54,17.54v28.92c0,9.67-7.87,17.54-17.54,17.54h-97.92
		c-9.67,0-17.54-7.87-17.54-17.54v-28.92c0-9.67,7.87-17.54,17.54-17.54H612.46 M612.46,206h-97.92c-10.79,0-19.54,8.75-19.54,19.54
		v28.92c0,10.79,8.75,19.54,19.54,19.54h97.92c10.79,0,19.54-8.75,19.54-19.54v-28.92C632,214.75,623.25,206,612.46,206L612.46,206z
		"/>
</g>
<g>
	<path class="st0" d="M219.54,407c-10.22,0-18.54-8.32-18.54-18.54v-28.92c0-10.22,8.32-18.54,18.54-18.54h97.92
		c10.22,0,18.54,8.32,18.54,18.54v28.92c0,10.22-8.32,18.54-18.54,18.54H219.54z"/>
	<path class="st1" d="M317.46,342c9.67,0,17.54,7.87,17.54,17.54v28.92c0,9.67-7.87,17.54-17.54,17.54h-97.92
		c-9.67,0-17.54-7.87-17.54-17.54v-28.92c0-9.67,7.87-17.54,17.54-17.54H317.46 M317.46,340h-97.92c-10.79,0-19.54,8.75-19.54,19.54
		v28.92c0,10.79,8.75,19.54,19.54,19.54h97.92c10.79,0,19.54-8.75,19.54-19.54v-28.92C337,348.75,328.25,340,317.46,340L317.46,340z
		"/>
</g>
<g>
	<path class="st0" d="M777.54,406c-10.22,0-18.54-8.32-18.54-18.54v-28.92c0-10.22,8.32-18.54,18.54-18.54h97.92
		c10.22,0,18.54,8.32,18.54,18.54v28.92c0,10.22-8.32,18.54-18.54,18.54H777.54z"/>
	<path class="st1" d="M875.46,341c9.67,0,17.54,7.87,17.54,17.54v28.92c0,9.67-7.87,17.54-17.54,17.54h-97.92
		c-9.67,0-17.54-7.87-17.54-17.54v-28.92c0-9.67,7.87-17.54,17.54-17.54H875.46 M875.46,339h-97.92c-10.79,0-19.54,8.75-19.54,19.54
		v28.92c0,10.79,8.75,19.54,19.54,19.54h97.92c10.79,0,19.54-8.75,19.54-19.54v-28.92C895,347.75,886.25,339,875.46,339L875.46,339z
		"/>
</g>
<g>
	<path class="st0" d="M329.54,511c-10.22,0-18.54-8.32-18.54-18.54v-28.92c0-10.22,8.32-18.54,18.54-18.54h97.92
		c10.22,0,18.54,8.32,18.54,18.54v28.92c0,10.22-8.32,18.54-18.54,18.54H329.54z"/>
	<path class="st1" d="M427.46,446c9.67,0,17.54,7.87,17.54,17.54v28.92c0,9.67-7.87,17.54-17.54,17.54h-97.92
		c-9.67,0-17.54-7.87-17.54-17.54v-28.92c0-9.67,7.87-17.54,17.54-17.54H427.46 M427.46,444h-97.92c-10.79,0-19.54,8.75-19.54,19.54
		v28.92c0,10.79,8.75,19.54,19.54,19.54h97.92c10.79,0,19.54-8.75,19.54-19.54v-28.92C447,452.75,438.25,444,427.46,444L427.46,444z
		"/>
</g>
<g>
	<path class="st0" d="M617.54,506c-10.22,0-18.54-8.32-18.54-18.54v-28.92c0-10.22,8.32-18.54,18.54-18.54h97.92
		c10.22,0,18.54,8.32,18.54,18.54v28.92c0,10.22-8.32,18.54-18.54,18.54H617.54z"/>
	<path class="st1" d="M715.46,441c9.67,0,17.54,7.87,17.54,17.54v28.92c0,9.67-7.87,17.54-17.54,17.54h-97.92
		c-9.67,0-17.54-7.87-17.54-17.54v-28.92c0-9.67,7.87-17.54,17.54-17.54H715.46 M715.46,439h-97.92c-10.79,0-19.54,8.75-19.54,19.54
		v28.92c0,10.79,8.75,19.54,19.54,19.54h97.92c10.79,0,19.54-8.75,19.54-19.54v-28.92C735,447.75,726.25,439,715.46,439L715.46,439z
		"/>
</g>
<g>
	<text transform="matrix(1 0 0 1 527.3374 139.542)" class="st1 st2 st3">Document</text>
</g>
<g>
	<text transform="matrix(1 0 0 1 538.3804 248.3074)" class="st1 st2 st3">&lt;html&gt;</text>
</g>
<g>
	<text transform="matrix(1 0 0 1 797.2254 382.9569)" class="st1 st2 st3">&lt;body&gt;</text>
</g>
<g>
	<text transform="matrix(1 0 0 1 239.8006 384.9566)" class="st1 st2 st3">&lt;head&gt;</text>
</g>
<g>
	<text transform="matrix(1 0 0 1 352.2498 488.2139)" class="st1 st2 st3">&lt;title&gt;</text>
</g>
<g>
	<text transform="matrix(1 0 0 1 648.498 485.2753)" class="st1 st2 st3">&lt;h1&gt;</text>
</g>
<g>
	<path class="st0" d="M111.54,511C101.32,511,93,502.68,93,492.46v-28.92c0-10.22,8.32-18.54,18.54-18.54h97.92
		c10.22,0,18.54,8.32,18.54,18.54v28.92c0,10.22-8.32,18.54-18.54,18.54H111.54z"/>
	<path class="st1" d="M209.46,446c9.67,0,17.54,7.87,17.54,17.54v28.92c0,9.67-7.87,17.54-17.54,17.54h-97.92
		c-9.67,0-17.54-7.87-17.54-17.54v-28.92c0-9.67,7.87-17.54,17.54-17.54H209.46 M209.46,444h-97.92C100.75,444,92,452.75,92,463.54
		v28.92c0,10.79,8.75,19.54,19.54,19.54h97.92c10.79,0,19.54-8.75,19.54-19.54v-28.92C229,452.75,220.25,444,209.46,444L209.46,444z
		"/>
</g>
<g>
	<text transform="matrix(1 0 0 1 130.2498 488.2139)" class="st1 st2 st3">&lt;meta&gt;</text>
</g>
<g>
	<path class="st0" d="M777.54,506c-10.22,0-18.54-8.32-18.54-18.54v-28.92c0-10.22,8.32-18.54,18.54-18.54h97.92
		c10.22,0,18.54,8.32,18.54,18.54v28.92c0,10.22-8.32,18.54-18.54,18.54H777.54z"/>
	<path class="st1" d="M875.46,441c9.67,0,17.54,7.87,17.54,17.54v28.92c0,9.67-7.87,17.54-17.54,17.54h-97.92
		c-9.67,0-17.54-7.87-17.54-17.54v-28.92c0-9.67,7.87-17.54,17.54-17.54H875.46 M875.46,439h-97.92c-10.79,0-19.54,8.75-19.54,19.54
		v28.92c0,10.79,8.75,19.54,19.54,19.54h97.92c10.79,0,19.54-8.75,19.54-19.54v-28.92C895,447.75,886.25,439,875.46,439L875.46,439z
		"/>
</g>
<g>
	<text transform="matrix(1 0 0 1 798.498 482.2753)" class="st1 st2 st3">&lt;input&gt;</text>
</g>
<g>
	<path class="st0" d="M946.54,504c-10.22,0-18.54-8.32-18.54-18.54v-28.92c0-10.22,8.32-18.54,18.54-18.54h97.92
		c10.22,0,18.54,8.32,18.54,18.54v28.92c0,10.22-8.32,18.54-18.54,18.54H946.54z"/>
	<path class="st1" d="M1044.46,439c9.67,0,17.54,7.87,17.54,17.54v28.92c0,9.67-7.87,17.54-17.54,17.54h-97.92
		c-9.67,0-17.54-7.87-17.54-17.54v-28.92c0-9.67,7.87-17.54,17.54-17.54H1044.46 M1044.46,437h-97.92
		c-10.79,0-19.54,8.75-19.54,19.54v28.92c0,10.79,8.75,19.54,19.54,19.54h97.92c10.79,0,19.54-8.75,19.54-19.54v-28.92
		C1064,445.75,1055.25,437,1044.46,437L1044.46,437z"/>
</g>
<g>
	<text transform="matrix(1 0 0 1 976.498 479.2753)" class="st1 st2 st3">&lt;div&gt;</text>
</g>
<g>
	<path class="st0" d="M949.54,602c-10.22,0-18.54-8.32-18.54-18.54v-28.92c0-10.22,8.32-18.54,18.54-18.54h97.92
		c10.22,0,18.54,8.32,18.54,18.54v28.92c0,10.22-8.32,18.54-18.54,18.54H949.54z"/>
	<path class="st1" d="M1047.46,537c9.67,0,17.54,7.87,17.54,17.54v28.92c0,9.67-7.87,17.54-17.54,17.54h-97.92
		c-9.67,0-17.54-7.87-17.54-17.54v-28.92c0-9.67,7.87-17.54,17.54-17.54H1047.46 M1047.46,535h-97.92
		c-10.79,0-19.54,8.75-19.54,19.54v28.92c0,10.79,8.75,19.54,19.54,19.54h97.92c10.79,0,19.54-8.75,19.54-19.54v-28.92
		C1067,543.75,1058.25,535,1047.46,535L1047.46,535z"/>
</g>
<g>
	<text transform="matrix(1 0 0 1 983.498 579.2753)" class="st1 st2 st3">&lt;p&gt;</text>
</g>
<g>
	<path class="st0" d="M950.54,700c-10.22,0-18.54-8.32-18.54-18.54v-28.92c0-10.22,8.32-18.54,18.54-18.54h97.92
		c10.22,0,18.54,8.32,18.54,18.54v28.92c0,10.22-8.32,18.54-18.54,18.54H950.54z"/>
	<path class="st1" d="M1048.46,635c9.67,0,17.54,7.87,17.54,17.54v28.92c0,9.67-7.87,17.54-17.54,17.54h-97.92
		c-9.67,0-17.54-7.87-17.54-17.54v-28.92c0-9.67,7.87-17.54,17.54-17.54H1048.46 M1048.46,633h-97.92
		c-10.79,0-19.54,8.75-19.54,19.54v28.92c0,10.79,8.75,19.54,19.54,19.54h97.92c10.79,0,19.54-8.75,19.54-19.54v-28.92
		C1068,641.75,1059.25,633,1048.46,633L1048.46,633z"/>
</g>
<g>
	<text transform="matrix(1 0 0 1 964.498 677.2753)" class="st1 st2 st3">&lt;button&gt;</text>
</g>
<line class="st4" x1="563" y1="169" x2="563" y2="206"/>
<line class="st4" x1="826" y1="407" x2="826" y2="428"/>
<line class="st4" x1="562" y1="272" x2="562" y2="304"/>
<line class="st4" x1="267" y1="304" x2="826" y2="304"/>
<line class="st4" x1="268" y1="304" x2="268" y2="341"/>
<line class="st4" x1="826" y1="304" x2="826" y2="341"/>
<line class="st4" x1="267" y1="407" x2="267" y2="428"/>
<line class="st4" x1="154" y1="428" x2="378" y2="428"/>
<line class="st4" x1="666" y1="428" x2="997" y2="428"/>
<line class="st4" x1="154" y1="428" x2="154" y2="444"/>
<line class="st4" x1="378" y1="428" x2="378" y2="444"/>
<line class="st4" x1="666" y1="428" x2="666" y2="439"/>
<line class="st4" x1="997" y1="428" x2="997" y2="439"/>
<line class="st4" x1="826" y1="428" x2="826" y2="439"/>
<line class="st4" x1="999" y1="505" x2="999" y2="537"/>
<line class="st4" x1="1001" y1="700" x2="1001" y2="730"/>
<g>
	<path class="st1" d="M1044.46,341c9.67,0,17.54,7.87,17.54,17.54v28.92c0,9.67-7.87,17.54-17.54,17.54h-97.92
		c-9.67,0-17.54-7.87-17.54-17.54v-28.92c0-9.67,7.87-17.54,17.54-17.54H1044.46 M1044.46,339h-97.92
		c-10.79,0-19.54,8.75-19.54,19.54v28.92c0,10.79,8.75,19.54,19.54,19.54h97.92c10.79,0,19.54-8.75,19.54-19.54v-28.92
		C1064,347.75,1055.25,339,1044.46,339L1044.46,339z"/>
</g>
<g>
	<line class="st4" x1="895" y1="374" x2="927" y2="374"/>
</g>
<g>
	<text transform="matrix(1 0 0 1 976.0457 382.3507)" class="st1 st2 st3">class</text>
</g>
<g>
	<path class="st1" d="M1212.27,437.39c9.67,0,17.54,7.87,17.54,17.54v28.92c0,9.67-7.87,17.54-17.54,17.54h-97.92
		c-9.67,0-17.54-7.87-17.54-17.54v-28.92c0-9.67,7.87-17.54,17.54-17.54H1212.27 M1212.27,435.39h-97.92
		c-10.79,0-19.54,8.75-19.54,19.54v28.92c0,10.79,8.75,19.54,19.54,19.54h97.92c10.79,0,19.54-8.75,19.54-19.54v-28.92
		C1231.81,444.14,1223.06,435.39,1212.27,435.39L1212.27,435.39z"/>
</g>
<g>
	<line class="st4" x1="1062.81" y1="470.39" x2="1095" y2="470.39"/>
</g>
<g>
	<text transform="matrix(1 0 0 1 1143.8523 480.7442)" class="st1 st2 st3">class</text>
</g>
<g>
	<path class="st1" d="M1216,537.4c9.67,0,17.54,7.87,17.54,17.54v28.92c0,9.67-7.87,17.54-17.54,17.54h-97.92
		c-9.67,0-17.54-7.87-17.54-17.54v-28.92c0-9.67,7.87-17.54,17.54-17.54H1216 M1216,535.4h-97.92c-10.79,0-19.54,8.75-19.54,19.54
		v28.92c0,10.79,8.75,19.54,19.54,19.54H1216c10.79,0,19.54-8.75,19.54-19.54v-28.92C1235.54,544.15,1226.79,535.4,1216,535.4
		L1216,535.4z"/>
</g>
<g>
	<line class="st4" x1="1066.54" y1="570.4" x2="1098.74" y2="570.4"/>
</g>
<g>
	<text transform="matrix(1 0 0 1 1146.5886 578.7515)" class="st1 st2 st3">class</text>
</g>
<g>
	<path class="st1" d="M1215,635.4c9.67,0,17.54,7.87,17.54,17.54v28.92c0,9.67-7.87,17.54-17.54,17.54h-97.92
		c-9.67,0-17.54-7.87-17.54-17.54v-28.92c0-9.67,7.87-17.54,17.54-17.54H1215 M1215,633.4h-97.92c-10.79,0-19.54,8.75-19.54,19.54
		v28.92c0,10.79,8.75,19.54,19.54,19.54H1215c10.79,0,19.54-8.75,19.54-19.54v-28.92C1234.54,642.15,1225.79,633.4,1215,633.4
		L1215,633.4z"/>
</g>
<g>
	<line class="st4" x1="1065.54" y1="668.4" x2="1097.74" y2="668.4"/>
</g>
<g>
	<text transform="matrix(1 0 0 1 1146.5886 676.7515)" class="st1 st2 st3">class</text>
</g>
<g>
	<path class="st1" d="M876.11,536.25c9.67,0,17.54,7.87,17.54,17.54v28.92c0,9.67-7.87,17.54-17.54,17.54h-97.92
		c-9.67,0-17.54-7.87-17.54-17.54v-28.92c0-9.67,7.87-17.54,17.54-17.54H876.11 M876.11,534.25h-97.92
		c-10.79,0-19.54,8.75-19.54,19.54v28.92c0,10.79,8.75,19.54,19.54,19.54h97.92c10.79,0,19.54-8.75,19.54-19.54v-28.92
		C895.65,543,886.9,534.25,876.11,534.25L876.11,534.25z"/>
</g>
<g>
	<line class="st5" x1="825.74" y1="505" x2="825.74" y2="534.35"/>
</g>
<g>
	<text transform="matrix(1 0 0 1 805.6922 578.5994)" class="st1 st2 st3">class</text>
</g>
<g>
	<text transform="matrix(1 0 0 1 515.667 229.0453)" class="st6 st2 st3">Root element</text>
</g>
<g>
	<text transform="matrix(1 0 0 1 240.7719 362.7646)" class="st6 st2 st3">element</text>
</g>
<g>
	<text transform="matrix(1 0 0 1 131.2489 468.2621)" class="st6 st2 st3">element</text>
</g>
<g>
	<text transform="matrix(1 0 0 1 348.2489 468.2621)" class="st6 st2 st3">element</text>
</g>
<g>
	<text transform="matrix(1 0 0 1 793.2489 363.2621)" class="st6 st2 st3">element</text>
</g>
<g>
	<text transform="matrix(1 0 0 1 635.2489 464.2621)" class="st6 st2 st3">element</text>
</g>
<g>
	<text transform="matrix(1 0 0 1 798.2489 463.2621)" class="st6 st2 st3">element</text>
</g>
<g>
	<text transform="matrix(1 0 0 1 965.2489 463.2621)" class="st6 st2 st3">element</text>
</g>
<g>
	<text transform="matrix(1 0 0 1 966.2489 563.2621)" class="st6 st2 st3">element</text>
</g>
<g>
	<text transform="matrix(1 0 0 1 967.2489 657.2621)" class="st6 st2 st3">element</text>
</g>
<g>
	<text transform="matrix(1 0 0 1 1133.2489 463.2621)" class="st6 st2 st3">attribute</text>
</g>
<g>
	<text transform="matrix(1 0 0 1 1133.8748 561.6186)" class="st6 st2 st3">attribute</text>
</g>
<g>
	<text transform="matrix(1 0 0 1 1133.8748 657.6186)" class="st6 st2 st3">attribute</text>
</g>
<g>
	<text transform="matrix(1 0 0 1 793.8748 561.6186)" class="st6 st2 st3">attribute</text>
</g>
<line class="st4" x1="827" y1="505" x2="827" y2="535"/>
<g>
	<text transform="matrix(1 0 0 1 964.9819 363.2543)" class="st6 st2 st3">attribute</text>
</g>
<g>
	<text transform="matrix(1 0 0 1 618.8419 550.2537)" class="st1 st2 st3">채팅 봇 만들기</text>
</g>
<g>
	<text transform="matrix(1 0 0 1 1007.0942 627.2537)" class="st1 st2 st3">9월 모각코</text>
</g>
<g>
	<text transform="matrix(1 0 0 1 968.0942 745.2537)" class="st1 st2 st3">함께해요!</text>
</g>
<line class="st4" x1="660" y1="505" x2="660" y2="535"/>
<line class="st4" x1="1001" y1="602" x2="1001" y2="609"/>
<g>
	<text transform="matrix(1 0 0 1 941.9827 626.9519)" class="st1 st2 st3">초코칩</text>
</g>
<g>
	<line class="st4" x1="976.06" y1="609.37" x2="1026" y2="609.37"/>
</g>
<line class="st4" x1="977" y1="609" x2="977" y2="613"/>
<line class="st4" x1="1025" y1="609" x2="1025" y2="613"/>
<g>
	<text transform="matrix(1 0 0 1 349.3126 552.9932)" class="st1 st2 st3">chatBot</text>
</g>
<line class="st4" x1="378" y1="510" x2="378" y2="540"/>
</svg>
